<mxfile host="app.diagrams.net" modified="2022-06-21T13:00:36.716Z" agent="5.0 (Windows NT 10.0; Win64; x64) AppleWebKit/537.36 (KHTML, like Gecko) Chrome/102.0.0.0 Safari/537.36" etag="-mgD-FQMlE8_IazytNGs" version="20.0.1" type="github">
  <diagram id="WNplILXRy1oe8KWwJbsN" name="Page-1">
    <mxGraphModel dx="2062" dy="1122" grid="1" gridSize="10" guides="1" tooltips="1" connect="1" arrows="1" fold="1" page="1" pageScale="1" pageWidth="827" pageHeight="1169" math="0" shadow="0">
      <root>
        <mxCell id="0" />
        <mxCell id="1" parent="0" />
        <mxCell id="WB7KlCcRTzgxZvh_4Z3g-1" value="" style="rounded=0;whiteSpace=wrap;html=1;" vertex="1" parent="1">
          <mxGeometry x="50" y="210" width="930" height="40" as="geometry" />
        </mxCell>
        <mxCell id="WB7KlCcRTzgxZvh_4Z3g-2" value="Locations of the World with Time scrolling through" style="rounded=0;whiteSpace=wrap;html=1;" vertex="1" parent="1">
          <mxGeometry x="50" y="250" width="930" height="20" as="geometry" />
        </mxCell>
      </root>
    </mxGraphModel>
  </diagram>
</mxfile>
